<?xml version="1.0" encoding="UTF-8"?>
<svg version="1.1" xmlns="http://www.w3.org/2000/svg" width="1000" height="1000">
<path d="M0 0 C330 0 660 0 1000 0 C1000 330 1000 660 1000 1000 C670 1000 340 1000 0 1000 C0 670 0 340 0 0 Z " fill="#FEFCEC" transform="translate(0,0)"/>
<path d="M0 0 C7.75546897 -0.07655022 15.51083919 -0.12880865 23.26660156 -0.16479492 C25.90075319 -0.17980939 28.53488012 -0.20022713 31.16894531 -0.22631836 C34.97206751 -0.26302525 38.77485694 -0.27980049 42.578125 -0.29296875 C43.74112122 -0.30845261 44.90411743 -0.32393646 46.10235596 -0.33988953 C56.52575334 -0.34199786 66.74434909 0.44394504 74.44140625 8.125 C78.85371935 13.43304584 79.55816017 18.72760495 79.34765625 25.41796875 C78.6086222 30.90674976 75.10676029 34.47610548 70.86328125 37.79296875 C66.84252491 40.39760965 62.39614795 42.13228744 58 44 C55.83744118 44.94448951 53.6773292 45.89445733 51.51708984 46.84423828 C48.34766391 48.23625857 45.17387209 49.61815105 42 51 C42.75023437 51.00257813 43.50046875 51.00515625 44.2734375 51.0078125 C52.19641783 51.30716944 57.88557567 52.81531819 64 58 C71.38273285 66.21024796 74.72616698 77.66157995 78 88 C80.64 88 83.28 88 86 88 C86 88.99 86 89.98 86 91 C84.75264433 91.6509259 83.50198168 92.29551669 82.25 92.9375 C81.20585937 93.47697266 81.20585937 93.47697266 80.140625 94.02734375 C73.61675596 96.99165651 65.37368073 97.20156064 58.51171875 95.31640625 C53.76874778 93.16375841 51.58886278 90.60601836 49 86 C48.38586197 83.36719303 47.91824218 80.91058204 47.5625 78.25 C46.60511279 72.15498542 45.09503061 67.22733941 41.98828125 61.8203125 C41 60 41 60 41 58 C38.36 58 35.72 58 33 58 C33 68.56 33 79.12 33 90 C35.64 91.32 38.28 92.64 41 94 C41 94.66 41 95.32 41 96 C27.47 96 13.94 96 0 96 C0 95.01 0 94.02 0 93 C2.64 92.01 5.28 91.02 8 90 C8.33 61.95 8.66 33.9 9 5 C7.35 4.67 5.7 4.34 4 4 C1.6875 2.9375 1.6875 2.9375 0 2 C0 1.34 0 0.68 0 0 Z " fill="#3C5516" transform="translate(222,436)"/>
<path d="M0 0 C13.53 0 27.06 0 41 0 C41 0.66 41 1.32 41 2 C35.375 5 35.375 5 32 5 C32 19.52 32 34.04 32 49 C41.9 49 51.8 49 62 49 C61.67 34.81 61.34 20.62 61 6 C56.545 4.02 56.545 4.02 52 2 C52 1.34 52 0.68 52 0 C65.53 0 79.06 0 93 0 C92.67 0.99 92.34 1.98 92 3 C88.535 4.485 88.535 4.485 85 6 C84.67 33.72 84.34 61.44 84 90 C85.98 90.66 87.96 91.32 90 92 C91.34721283 92.63815344 92.68747118 93.29325371 94 94 C94 94.66 94 95.32 94 96 C80.14 96 66.28 96 52 96 C52.495 94.515 52.495 94.515 53 93 C55.97 92.01 58.94 91.02 62 90 C62 77.13 62 64.26 62 51 C52.1 51 42.2 51 32 51 C32.33 63.87 32.66 76.74 33 90 C35.64 91.32 38.28 92.64 41 94 C41 94.66 41 95.32 41 96 C27.47 96 13.94 96 0 96 C0.33 95.01 0.66 94.02 1 93 C3.31 92.01 5.62 91.02 8 90 C8.33 61.95 8.66 33.9 9 5 C7.35 4.67 5.7 4.34 4 4 C1.6875 2.9375 1.6875 2.9375 0 2 C0 1.34 0 0.68 0 0 Z " fill="#395313" transform="translate(513,436)"/>
<path d="M0 0 C10.89 0 21.78 0 33 0 C33 0.66 33 1.32 33 2 C27.25 5 27.25 5 25 5 C25.41342651 6.0353891 25.82685303 7.0707782 26.25280762 8.13754272 C30.14144834 17.8775853 34.02649624 27.61905404 37.90799713 37.3619442 C39.90380724 42.37125524 41.90089631 47.38004853 43.90087891 52.38769531 C45.8295755 57.216988 47.75495078 62.04759232 49.67799377 66.87913895 C50.41362955 68.72566836 51.15047722 70.57171543 51.88853455 72.41727829 C52.91910079 74.99486955 53.94541188 77.57411545 54.97070312 80.15380859 C55.2792775 80.92272934 55.58785187 81.69165009 55.90577698 82.48387146 C58 87.77189568 58 87.77189568 58 90 C58.928125 90.28875 59.85625 90.5775 60.8125 90.875 C64 92 64 92 67 94 C67 94.66 67 95.32 67 96 C53.14 96 39.28 96 25 96 C27 92 27 92 30 90 C28.43109015 81.21410486 25.21090113 73.30646162 22 65 C11.77 64.67 1.54 64.34 -9 64 C-7.42572249 79.45237235 -7.42572249 79.45237235 0.625 91.5625 C3.01193964 93.12658981 3.01193964 93.12658981 6 94 C6 94.66 6 95.32 6 96 C-8.85 96 -23.7 96 -39 96 C-37.83210574 92.49631723 -36.64756928 92.11030717 -33.67578125 90.1953125 C-21.96354926 81.84113304 -18.66032289 64.36970229 -14.9375 51.25 C-14.50047671 49.73563163 -14.06272622 48.22147294 -13.62426758 46.70751953 C-11.23488455 38.43398993 -8.89755248 30.14569333 -6.63183594 21.83740234 C-4.6186677 14.49536682 -2.30816975 7.25424779 0 0 Z " fill="#3B5415" transform="translate(353,436)"/>
<path d="M0 0 C13.53 0 27.06 0 41 0 C41 0.66 41 1.32 41 2 C38.03 2.99 35.06 3.98 32 5 C32 18.53 32 32.06 32 46 C40.26795343 41.42717094 40.26795343 41.42717094 47 35.4375 C47.50128418 34.92372803 48.00256836 34.40995605 48.51904297 33.88061523 C59.46308511 22.90079225 59.46308511 22.90079225 64 8.875 C63.24312146 5.77339015 63.24312146 5.77339015 60.3125 4.1875 C57.17446134 3.06254275 54.30398937 2.39333207 51 2 C51 1.34 51 0.68 51 0 C63.21 0 75.42 0 88 0 C88 0.99 88 1.98 88 3 C87.46632813 3.12375 86.93265625 3.2475 86.3828125 3.375 C75.80154147 6.30407156 69.04138782 13.66413668 62 21.6875 C61.43571289 22.32913086 60.87142578 22.97076172 60.29003906 23.63183594 C59.76120117 24.25219727 59.23236328 24.87255859 58.6875 25.51171875 C58.21699219 26.06303467 57.74648438 26.61435059 57.26171875 27.18237305 C55.65804451 29.4926197 54.66484748 31.24487405 54 34 C55.06780203 37.03352557 55.06780203 37.03352557 57.03125 40.09375 C57.37363205 40.6739389 57.7160141 41.25412781 58.06877136 41.85189819 C59.19415916 43.74630492 60.34585345 45.62299904 61.5 47.5 C62.28454726 48.80298432 63.06815085 50.10653727 63.85083008 51.41064453 C76.79542435 75.60810082 76.79542435 75.60810082 96 94 C96 94.66 96 95.32 96 96 C82.47 96 68.94 96 55 96 C56 93 56 93 57.875 91.8125 C60 91 60 91 63 91 C52.08379006 71.14883937 52.08379006 71.14883937 40 52 C39.34 51.01 38.68 50.02 38 49 C35.03 48.505 35.03 48.505 32 48 C32.33 61.86 32.66 75.72 33 90 C35.64 91.32 38.28 92.64 41 94 C41 94.66 41 95.32 41 96 C27.14 96 13.28 96 -1 96 C-1 95.34 -1 94.68 -1 94 C1.97 92.68 4.94 91.36 8 90 C8.33 61.95 8.66 33.9 9 5 C7.35 4.67 5.7 4.34 4 4 C1.6875 2.9375 1.6875 2.9375 0 2 C0 1.34 0 0.68 0 0 Z " fill="#3A5415" transform="translate(776,436)"/>
<path d="M0 0 C5.93095558 3.69721907 9.48335312 9.79242186 12.2421875 16.0625 C12.97047162 19.41260693 12.90741914 22.51781021 12.8671875 25.9375 C10.13880315 26.75270635 7.40954333 27.56474843 4.6796875 28.375 C3.91076172 28.60509766 3.14183594 28.83519531 2.34960938 29.07226562 C-2.92412366 30.63401489 -7.89905565 32.09400435 -13.4453125 32 C-15.270625 31.9690625 -15.270625 31.9690625 -17.1328125 31.9375 C-16.69149141 29.36312696 -16.22426763 27.13377678 -15.1171875 24.7578125 C-13.8604539 21.15717099 -13.76480978 17.7680375 -13.7578125 14 C-13.72107422 12.96456055 -13.72107422 12.96456055 -13.68359375 11.90820312 C-13.65433857 6.7641669 -14.88866071 3.87938297 -18.1328125 -0.0625 C-21.77826859 -2.17302721 -24.96515985 -2.49663048 -29.1328125 -2.0625 C-35.68629735 1.09630021 -37.60276365 6.40096282 -40.1328125 12.9375 C-47.00171677 33.91301303 -46.23949202 58.89054517 -37.5703125 79.2734375 C-35.4449426 83.21230237 -33.32988286 86.15667134 -29.1328125 87.9375 C-25.85748054 88.3708343 -23.23728121 88.05952708 -20.1328125 86.9375 C-16.89236792 84.37214804 -15.43721083 82.850695 -14.1328125 78.9375 C-13.65120766 71.04658992 -13.27608598 64.00816529 -17.1328125 56.9375 C-17.1328125 55.9475 -17.1328125 54.9575 -17.1328125 53.9375 C-11.63272144 53.7201051 -6.89526786 54.47771119 -1.5703125 55.8125 C-0.84134766 55.98652344 -0.11238281 56.16054688 0.63867188 56.33984375 C4.79048671 57.34883565 8.83129084 58.52206705 12.8671875 59.9375 C13.51430422 67.37934223 10.99848566 73.33068773 7.2421875 79.6875 C-3.19639352 89.57668202 -15.24232575 91.38135757 -29.125 91.1484375 C-41.56017666 90.67399129 -51.91097518 85.0282112 -60.3828125 76.078125 C-63.20094551 72.63094445 -65.22622467 68.94640902 -67.1328125 64.9375 C-67.44089844 64.31746094 -67.74898437 63.69742188 -68.06640625 63.05859375 C-72.8168393 52.89857664 -73.17119819 36.58627305 -69.5703125 25.9375 C-63.54707876 12.3536337 -54.99411409 2.62305773 -41.1328125 -3.0625 C-40.24078125 -3.42859375 -39.34875 -3.7946875 -38.4296875 -4.171875 C-25.96444433 -7.53926296 -11.4399571 -5.69902625 0 0 Z " fill="#3B5516" transform="translate(758.1328125,441.0625)"/>
<path d="M0 0 C5.93095558 3.69721907 9.48335312 9.79242186 12.2421875 16.0625 C12.97047162 19.41260693 12.90741914 22.51781021 12.8671875 25.9375 C10.13880315 26.75270635 7.40954333 27.56474843 4.6796875 28.375 C3.91076172 28.60509766 3.14183594 28.83519531 2.34960938 29.07226562 C-2.92412366 30.63401489 -7.89905565 32.09400435 -13.4453125 32 C-15.270625 31.9690625 -15.270625 31.9690625 -17.1328125 31.9375 C-16.69149141 29.36312696 -16.22426763 27.13377678 -15.1171875 24.7578125 C-13.8604539 21.15717099 -13.76480978 17.7680375 -13.7578125 14 C-13.72107422 12.96456055 -13.72107422 12.96456055 -13.68359375 11.90820312 C-13.65433857 6.7641669 -14.88866071 3.87938297 -18.1328125 -0.0625 C-21.77826859 -2.17302721 -24.96515985 -2.49663048 -29.1328125 -2.0625 C-35.68629735 1.09630021 -37.60276365 6.40096282 -40.1328125 12.9375 C-47.00171677 33.91301303 -46.23949202 58.89054517 -37.5703125 79.2734375 C-35.4449426 83.21230237 -33.32988286 86.15667134 -29.1328125 87.9375 C-25.85748054 88.3708343 -23.23728121 88.05952708 -20.1328125 86.9375 C-16.89236792 84.37214804 -15.43721083 82.850695 -14.1328125 78.9375 C-13.65120766 71.04658992 -13.27608598 64.00816529 -17.1328125 56.9375 C-17.1328125 55.9475 -17.1328125 54.9575 -17.1328125 53.9375 C-11.63272144 53.7201051 -6.89526786 54.47771119 -1.5703125 55.8125 C-0.84134766 55.98652344 -0.11238281 56.16054688 0.63867188 56.33984375 C4.79048671 57.34883565 8.83129084 58.52206705 12.8671875 59.9375 C13.51430422 67.37934223 10.99848566 73.33068773 7.2421875 79.6875 C-3.19639352 89.57668202 -15.24232575 91.38135757 -29.125 91.1484375 C-41.56017666 90.67399129 -51.91097518 85.0282112 -60.3828125 76.078125 C-63.20094551 72.63094445 -65.22622467 68.94640902 -67.1328125 64.9375 C-67.44089844 64.31746094 -67.74898438 63.69742188 -68.06640625 63.05859375 C-72.8168393 52.89857664 -73.17119819 36.58627305 -69.5703125 25.9375 C-63.54707876 12.3536337 -54.99411409 2.62305773 -41.1328125 -3.0625 C-40.24078125 -3.42859375 -39.34875 -3.7946875 -38.4296875 -4.171875 C-25.96444433 -7.53926296 -11.4399571 -5.69902625 0 0 Z " fill="#3B5516" transform="translate(495.1328125,441.0625)"/>
<path d="M0 0 C23.43 0 46.86 0 71 0 C69.99752855 2.50617862 68.99412288 5.01326724 67.90087891 7.48120117 C66.92646967 10.20558602 66.68717691 12.41545818 66.5859375 15.30078125 C66.54726563 16.27724609 66.50859375 17.25371094 66.46875 18.25976562 C66.4378125 19.26716797 66.406875 20.27457031 66.375 21.3125 C66.33632813 22.33923828 66.29765625 23.36597656 66.2578125 24.42382812 C66.16385103 26.94904265 66.0781846 29.47425592 66 32 C65.01 32 64.02 32 63 32 C62.69707031 30.9378125 62.39414062 29.875625 62.08203125 28.78125 C57.83247756 13.72153626 57.83247756 13.72153626 47 3 C43.22166245 2.3300041 39.73257398 2.04148402 36 3 C32.91922498 5.85096623 31.74622825 8.03541274 31.54589844 12.14770508 C31.54652716 13.77178485 31.56885753 15.39595685 31.609375 17.01953125 C31.61503479 17.87810226 31.62069458 18.73667328 31.62652588 19.6212616 C31.64884213 22.3522516 31.69902833 25.08190939 31.75 27.8125 C31.7700712 29.66860079 31.78832089 31.52472223 31.8046875 33.38085938 C31.84869119 37.92108296 31.91768479 42.46031593 32 47 C32.33782501 46.51530746 32.67565002 46.03061493 33.02371216 45.53123474 C33.46979828 44.89758499 33.9158844 44.26393524 34.37548828 43.61108398 C34.81643829 42.98201645 35.25738831 42.35294891 35.71170044 41.70481873 C38.17171291 38.44946147 41.28231948 36.5771978 45 35 C48.875 34.5625 48.875 34.5625 52 35 C54 37 54 37 54.22705078 40.16455078 C54.22673389 41.50817963 54.21542181 42.8518341 54.1953125 44.1953125 C54.1924826 44.90275604 54.18965271 45.61019958 54.18673706 46.33908081 C54.17553137 48.6012251 54.15042679 50.86297515 54.125 53.125 C54.11497067 54.65754637 54.10584474 56.19009894 54.09765625 57.72265625 C54.07559086 61.48192301 54.04105896 65.24089464 54 69 C51.37471 66.37471 51.32832223 64.37417808 50.625 60.75 C49.11932201 53.68478754 49.11932201 53.68478754 45 48 C41.64982715 46.58090318 41.64982715 46.58090318 38 47 C35.42786631 48.62703878 33.82701589 49.67256632 32 52 C31.42083236 54.94143429 31.22152707 57.0441555 31.30859375 59.96875 C31.30996841 60.72667847 31.31134308 61.48460693 31.3127594 62.26550293 C31.32179278 63.86253005 31.34535151 65.45953337 31.38256836 67.05615234 C31.43733862 69.49282032 31.44409718 71.92606184 31.44335938 74.36328125 C31.45810851 75.91930022 31.4755951 77.47529615 31.49609375 79.03125 C31.49943222 79.75534058 31.50277069 80.47943115 31.50621033 81.22546387 C31.62927487 85.6248351 32.29584168 88.49665041 35 92 C38.20389553 93.60194777 41.51580157 93.3516761 45 93 C51.22305857 90.80362639 54.54267581 86.99467486 57.3515625 81.22265625 C59.78951056 75.56975329 61.72635003 70.02089078 63 64 C63.99 64 64.98 64 66 64 C66.0093457 64.62455078 66.01869141 65.24910156 66.02832031 65.89257812 C66.08248937 68.7624763 66.16604195 71.63082485 66.25 74.5 C66.26417969 75.48226562 66.27835938 76.46453125 66.29296875 77.4765625 C66.513026 84.07828011 67.71771091 88.27568783 71 94 C71 94.66 71 95.32 71 96 C47.57 96 24.14 96 0 96 C1 93 1 93 3.9375 91.3125 C7 90 7 90 9 90 C8.67 62.28 8.34 34.56 8 6 C5.36 4.68 2.72 3.36 0 2 C0 1.34 0 0.68 0 0 Z " fill="#395313" transform="translate(612,436)"/>
<path d="M0 0 C29.37 0 58.74 0 89 0 C87.68 3.63 86.36 7.26 85 11 C84.58964516 14.8168261 84.30939119 18.37836526 84.25 22.1875 C84.20552734 23.61545898 84.20552734 23.61545898 84.16015625 25.07226562 C84.09052839 27.3815895 84.03731566 29.68996779 84 32 C83.01 32 82.02 32 81 32 C80.54560547 30.40671875 80.54560547 30.40671875 80.08203125 28.78125 C75.76260862 13.78152214 75.76260862 13.78152214 65 3 C62.14110109 2.54804172 59.92541251 2.70250042 57 3 C54.971151 5.028849 55.8147169 9.22066699 55.79467773 12.00805664 C55.78477814 12.84700974 55.77487854 13.68596283 55.76467896 14.55033875 C55.73296815 17.3369154 55.70826886 20.12350913 55.68359375 22.91015625 C55.66303248 24.83687292 55.64203624 26.76358499 55.62062073 28.69029236 C55.56531458 33.771823 55.51594312 38.85339492 55.46777344 43.93499756 C55.41762062 49.1162078 55.36190217 54.2973578 55.30664062 59.47851562 C55.19895463 69.65229233 55.097533 79.82612125 55 90 C55.63808594 90.18175781 56.27617187 90.36351562 56.93359375 90.55078125 C57.75988281 90.80214844 58.58617187 91.05351563 59.4375 91.3125 C60.26121094 91.55613281 61.08492187 91.79976562 61.93359375 92.05078125 C62.61550781 92.36402344 63.29742187 92.67726563 64 93 C64.33 93.99 64.66 94.98 65 96 C51.14 96 37.28 96 23 96 C23.495 94.515 23.495 94.515 24 93 C26.97 92.01 29.94 91.02 33 90 C32.67 61.29 32.34 32.58 32 3 C23.7711137 2.67926761 23.7711137 2.67926761 18 7 C12.08314061 14.44045068 10.0557986 22.9303003 8 32 C6.68 32 5.36 32 4 32 C3.98541748 31.30438965 3.97083496 30.6087793 3.95581055 29.89208984 C3.88102031 26.71918662 3.78446188 23.54729992 3.6875 20.375 C3.66494141 19.28058594 3.64238281 18.18617188 3.61914062 17.05859375 C3.42641278 11.27675848 3.12413582 7.04217095 0 2 C0 1.34 0 0.68 0 0 Z " fill="#385212" transform="translate(129,436)"/>
<path d="M0 0 C5.7258052 2.46801948 8.95106579 5.56987338 12 11 C14.0996038 17.2988114 14.21060109 25.32245657 11.4375 31.4375 C9.00997436 35.4946932 5.73408522 38.17934071 2 41 C1.24847656 41.60070312 0.49695313 42.20140625 -0.27734375 42.8203125 C-4.06797294 45.83515569 -7.83020944 48.52976332 -12 51 C-12.12689295 44.5406596 -12.21438968 38.08164116 -12.2746582 31.62133789 C-12.29978509 29.4242756 -12.33389246 27.22729676 -12.37719727 25.03051758 C-12.43792762 21.87039595 -12.46622833 18.71138043 -12.48828125 15.55078125 C-12.51408768 14.57039383 -12.5398941 13.59000641 -12.56648254 12.57991028 C-12.5683982 7.91027202 -12.53321896 5.71819841 -9.68041992 1.87573242 C-6.10987995 -0.62289756 -4.28650971 -0.66514806 0 0 Z " fill="#FCFAEA" transform="translate(266,438)"/>
<path d="M0 0 C2.92696911 1.46348456 3.00770515 3.31889818 4.06640625 6.37890625 C4.46553223 7.51730957 4.8646582 8.65571289 5.27587891 9.82861328 C5.70046387 11.0607959 6.12504883 12.29297852 6.5625 13.5625 C7.45333035 16.11458402 8.34949698 18.66478071 9.24609375 21.21484375 C9.47317017 21.86259766 9.70024658 22.51035156 9.9342041 23.17773438 C12.59347024 30.73748016 15.43941478 38.22632245 18.30688477 45.70922852 C18.83946899 47.10999634 18.83946899 47.10999634 19.3828125 48.5390625 C19.69621582 49.35584473 20.00961914 50.17262695 20.33251953 51.01416016 C21 53 21 53 21 55 C11.1 55 1.2 55 -9 55 C-9 41.47854641 -9 41.47854641 -8.046875 35.72265625 C-7.73556641 33.83836914 -7.73556641 33.83836914 -7.41796875 31.91601562 C-7.08732422 30.00852539 -7.08732422 30.00852539 -6.75 28.0625 C-6.54503906 26.79470703 -6.34007812 25.52691406 -6.12890625 24.22070312 C-4.72204424 15.9031644 -2.68871841 7.99446731 0 0 Z " fill="#F9F8E7" transform="translate(353,443)"/>
<path d="M0 0 C10.23 0 20.46 0 31 0 C31 0.66 31 1.32 31 2 C30.11248047 2.14695312 30.11248047 2.14695312 29.20703125 2.296875 C24.1484408 3.25412866 20.55704548 4.05840907 17 8 C11.89875885 15.51487188 9.60857097 23.12463913 8 32 C6.68 32 5.36 32 4 32 C3.98541748 31.30438965 3.97083496 30.6087793 3.95581055 29.89208984 C3.88102031 26.71918662 3.78446188 23.54729992 3.6875 20.375 C3.66494141 19.28058594 3.64238281 18.18617188 3.61914062 17.05859375 C3.42641278 11.27675848 3.12413582 7.04217095 0 2 C0 1.34 0 0.68 0 0 Z " fill="#40591B" transform="translate(129,436)"/>
<path d="M0 0 C0.66 0.66 1.32 1.32 2 2 C1.86328125 4.1796875 1.86328125 4.1796875 1.3125 6.875 C1.11398437 7.85597656 0.91546875 8.83695312 0.7109375 9.84765625 C-0.22057689 13.97805248 -1.23832034 18.08128915 -2.31640625 22.17578125 C-3.02491419 25.10293119 -3.53855715 28.02479226 -4 31 C-4.99 30.34 -5.98 29.68 -7 29 C-6.29791463 22.66345734 -4.65627796 16.69187754 -2.9375 10.5625 C-2.65583984 9.54478516 -2.37417969 8.52707031 -2.08398438 7.47851562 C-1.39317556 4.98457872 -0.69842182 2.49181351 0 0 Z " fill="#576D35" transform="translate(351,441)"/>
<path d="M0 0 C0.99 0.33 1.98 0.66 3 1 C-0.3 4.96 -3.6 8.92 -7 13 C-7.66 12.34 -8.32 11.68 -9 11 C-6.03 7.37 -3.06 3.74 0 0 Z " fill="#4F662C" transform="translate(836,456)"/>
<path d="M0 0 C0.66 0.66 1.32 1.32 2 2 C1.7578125 4.6015625 1.7578125 4.6015625 1.125 7.625 C0.81949219 9.12933594 0.81949219 9.12933594 0.5078125 10.6640625 C0.34023438 11.43492187 0.17265625 12.20578125 0 13 C-2 10 -2 10 -1.7578125 7.51953125 C-1.54898437 6.62621094 -1.34015625 5.73289062 -1.125 4.8125 C-0.92132813 3.91144531 -0.71765625 3.01039063 -0.5078125 2.08203125 C-0.34023438 1.39496094 -0.17265625 0.70789063 0 0 Z " fill="#6E804E" transform="translate(351,441)"/>
</svg>
